<svg width="26" height="22" viewBox="0 0 26 22" fill="none" xmlns="http://www.w3.org/2000/svg">
<path d="M25.7529 10.9575C25.7548 12.1789 25.2839 13.3378 24.4248 14.206L17.2177 21.713C17.0374 21.9006 16.7964 21.9944 16.5555 21.9944C16.3255 21.9944 16.0974 21.9098 15.9171 21.7369C15.5511 21.3874 15.5401 20.8024 15.8914 20.4364L23.1077 12.9202C23.4076 12.6167 23.6265 12.2617 23.7608 11.8772H0.919747C0.412047 11.8772 0 11.4652 0 10.9575C0 10.4498 0.412047 10.0377 0.919747 10.0377H23.7497C23.6118 9.65511 23.3892 9.30561 23.0912 9.00945L15.8178 1.56134C15.4628 1.19895 15.4701 0.615835 15.8325 0.260812C16.1968 -0.0923708 16.7799 -0.0868526 17.1331 0.277367L24.3954 7.71445C25.2581 8.56429 25.7437 9.73053 25.7529 10.9575Z" fill="black"/>
</svg>
