<svg width="26" height="22" viewBox="0 0 26 22" fill="none" xmlns="http://www.w3.org/2000/svg">
<path d="M5.72205e-06 10.9575C-0.00183487 12.1789 0.469076 13.3378 1.32812 14.206L8.53526 21.713C8.71553 21.9006 8.9565 21.9944 9.19748 21.9944C9.42742 21.9944 9.65551 21.9098 9.83578 21.7369C10.2018 21.3874 10.2129 20.8024 9.86154 20.4364L2.6452 12.9202C2.34536 12.6167 2.12646 12.2617 1.99218 11.8772H24.8332C25.3409 11.8772 25.7529 11.4652 25.7529 10.9575C25.7529 10.4498 25.3409 10.0377 24.8332 10.0377H2.00322C2.14118 9.65511 2.36376 9.30561 2.66175 9.00945L9.93512 1.56134C10.2901 1.19895 10.2828 0.615835 9.9204 0.260812C9.55618 -0.0923708 8.97306 -0.0868526 8.61988 0.277367L1.35755 7.71445C0.494831 8.56429 0.00920296 9.73053 5.72205e-06 10.9575Z" fill="black"/>
</svg>
